<?xml version="1.0" encoding="UTF-8"?>
<svg id="Layer_2" data-name="Layer 2" xmlns="http://www.w3.org/2000/svg" viewBox="0 0 72 72">
  <defs>
    <style>
      .cls-1 {
        opacity: 0;
      }

      .cls-1, .cls-2 {
        fill: #1a1a1a;
      }
    </style>
  </defs>
  <g id="Rough">
    <g>
      <rect class="cls-1" width="72" height="72"/>
      <path class="cls-2" d="M54.1,58.13c-.09-.12-.18-.24-.29-.34l-1.91-1.83c-.87-.84-2.04-1.31-3.25-1.31h-3.13c4.12-2.96,6.81-7.79,6.81-13.25,0-6.19-7.69-16.61-12.51-22.53,1.27-1.08,2.07-2.68,2.07-4.48,0-3.25-2.63-5.89-5.89-5.89s-5.89,2.63-5.89,5.89c0,1.8,.81,3.4,2.07,4.48-4.82,5.93-12.51,16.35-12.51,22.53,0,5.46,2.69,10.28,6.81,13.25h-3.13c-1.21,0-2.38,.47-3.25,1.31l-1.91,1.83c-.11,.11-.21,.22-.29,.34-.28,.39-.43,.86-.43,1.35v2.85c0,.65,.53,1.17,1.17,1.17H53.35c.65,0,1.17-.53,1.17-1.17v-2.85c0-.49-.15-.96-.43-1.35Zm-18.1-22.64c-3.32,0-6.4,1.13-8.98,3.08-.77,.58-1.8-.29-1.38-1.16,2.54-5.16,6.24-8.41,10.36-8.41s7.82,3.25,10.36,8.41c.42,.86-.61,1.74-1.38,1.16-2.58-1.95-5.66-3.08-8.98-3.08Z"/>
    </g>
  </g>
</svg>