<?xml version="1.0" encoding="UTF-8"?>
<svg id="Layer_2" data-name="Layer 2" xmlns="http://www.w3.org/2000/svg" viewBox="0 0 72 72">
  <defs>
    <style>
      .cls-1 {
        fill: #fff;
      }

      .cls-2 {
        fill: #1a1a1a;
        opacity: 0;
      }
    </style>
  </defs>
  <g id="Rough">
    <g>
      <rect class="cls-2" width="72" height="72"/>
      <path class="cls-1" d="M54.26,30.58c-3.6-1.7-8.57-2.87-14.19-3.26v-4.33h3.6c1.1,0,2-.9,2-2v-4.13c0-1.1-.9-2-2-2h-3.6v-4.36c0-1.1-.9-2-2-2h-4.13c-1.1,0-2,.9-2,2v4.36h-3.6c-1.1,0-2,.9-2,2v4.13c0,1.1,.9,2,2,2h3.6v4.33c-5.62,.39-10.59,1.57-14.19,3.26-1.27,.6-1.93,2.02-1.58,3.38l5.3,20.68h0s-3.27,3.14-3.27,3.14c-.05,.05-.09,.11-.13,.16-.37,.43-.59,.97-.59,1.54v2.85c0,.65,.53,1.17,1.17,1.17H53.35c.65,0,1.17-.53,1.17-1.17v-2.85c0-.57-.22-1.11-.59-1.54-.05-.05-.08-.11-.13-.16l-3.26-3.16,5.3-20.66c.35-1.36-.31-2.78-1.58-3.38Z"/>
    </g>
  </g>
</svg>