<?xml version="1.0" encoding="UTF-8"?>
<svg id="Layer_2" data-name="Layer 2" xmlns="http://www.w3.org/2000/svg" viewBox="0 0 72 72">
  <defs>
    <style>
      .cls-1 {
        fill: #fff;
      }

      .cls-2 {
        fill: #1a1a1a;
        opacity: 0;
      }
    </style>
  </defs>
  <g id="Rough">
    <g>
      <rect class="cls-2" width="72" height="72"/>
      <path class="cls-1" d="M55.37,57.78c-.05-.05-.08-.11-.13-.16l-3.26-3.16c6.09-21.18,1.04-31.77-5.23-37.07-2.99-2.53-6.87-3.43-10.64-3.18l-3.49-4.9c-.58-.81-1.76-.89-2.43-.14-1.21,1.34-2.58,3.74-1.49,7.13-.4,.21-.78,.43-1.15,.67h0c-2.97,1.93-3.59,5.09-3.59,5.09l-1.32,4.29c-.33,1.06-.9,2.02-1.67,2.81l-3.85,3.93c-1.67,1.71-1.32,4.52,.71,5.77l.78,.42c1.56,.86,3.46,.83,5-.06,.81-.55,1.82-.67,2.76-.39,5.27,1.56,9.52-2.67,9.52-2.67-.45,4.76-2.94,6.05-4.83,7.04-8.29,4.32-8.15,11.29-8.15,11.29h0s-3.27,3.14-3.27,3.14c-.05,.05-.09,.11-.13,.16-.37,.43-.59,.97-.59,1.54v2.85c0,.65,.53,1.17,1.17,1.17H54.78c.65,0,1.17-.53,1.17-1.17v-2.85c0-.57-.22-1.11-.59-1.54Zm-22.75-30.82c-.84,.84-1.94,1.22-2.99,1.13-.53-.04-.96-.47-1-1-.09-1.04,.29-2.15,1.13-2.99s1.94-1.22,2.99-1.13c.53,.04,.96,.47,1,1,.09,1.04-.29,2.15-1.13,2.99Z"/>
    </g>
  </g>
</svg>