<?xml version="1.0" encoding="UTF-8"?>
<svg id="Layer_2" data-name="Layer 2" xmlns="http://www.w3.org/2000/svg" viewBox="0 0 72 72">
  <defs>
    <style>
      .cls-1 {
        fill: #fff;
      }

      .cls-2 {
        fill: #1a1a1a;
        opacity: 0;
      }
    </style>
  </defs>
  <g id="Rough">
    <g>
      <rect class="cls-2" width="72" height="72"/>
      <path class="cls-1" d="M50.39,59.48c-.04-.53-.17-1.05-.38-1.54-.09-.21-.19-.42-.32-.61l-6.83-10.78h.19c1.1,0,2-.9,2-2v-2.05c0-1.1-.9-2-2-2h-.55c2.4-1.91,3.94-4.85,3.94-8.16,0-5.77-4.67-10.44-10.44-10.44s-10.44,4.67-10.44,10.44c0,3.3,1.54,6.25,3.94,8.16h-.55c-1.1,0-2,.9-2,2v2.05c0,1.1,.9,2,2,2h.19l-6.83,10.78c-.12,.2-.23,.4-.32,.61-.21,.49-.34,1.01-.38,1.54,0,.12-.03,.24-.03,.36v2.49c0,.65,.53,1.17,1.17,1.17h26.48c.65,0,1.17-.53,1.17-1.17v-2.49c0-.12-.02-.24-.03-.36Z"/>
    </g>
  </g>
</svg>