<?xml version="1.0" encoding="UTF-8"?>
<svg id="Layer_2" data-name="Layer 2" xmlns="http://www.w3.org/2000/svg" viewBox="0 0 72 72">
  <defs>
    <style>
      .cls-1 {
        opacity: 0;
      }

      .cls-1, .cls-2 {
        fill: #1a1a1a;
      }
    </style>
  </defs>
  <g id="Rough">
    <g>
      <rect class="cls-1" width="72" height="72"/>
      <path class="cls-2" d="M58.85,27.67c-1.75-1.72-5.27-4.12-10.38-2.64-.96-3.8-4.04-5.91-8.06-6.74,.92-1.04,1.48-2.4,1.48-3.9,0-3.25-2.63-5.89-5.89-5.89s-5.89,2.63-5.89,5.89c0,1.5,.56,2.86,1.48,3.9-4.02,.83-7.1,2.95-8.06,6.74-5.12-1.47-8.64,.93-10.38,2.64-.82,.8-1.07,2.02-.66,3.1l8.97,23.88h0l-3.27,3.14s-.09,.11-.13,.16h0c-.37,.43-.59,.97-.59,1.54v2.85c0,.65,.53,1.17,1.17,1.17H53.35c.65,0,1.17-.53,1.17-1.17v-2.85c0-.57-.22-1.11-.59-1.54h0c-.05-.05-.08-.11-.13-.16l-3.27-3.14h0l8.97-23.88c.4-1.07,.16-2.29-.66-3.1Z"/>
    </g>
  </g>
</svg>