<?xml version="1.0" encoding="UTF-8"?>
<svg id="Layer_2" data-name="Layer 2" xmlns="http://www.w3.org/2000/svg" viewBox="0 0 72 72">
  <defs>
    <style>
      .cls-1 {
        opacity: 0;
      }

      .cls-1, .cls-2 {
        fill: #1a1a1a;
      }
    </style>
  </defs>
  <g id="Rough">
    <g>
      <rect class="cls-1" width="72" height="72"/>
      <path class="cls-2" d="M52.53,15.56h-4.65c-1.1,0-2,.9-2,2v3.22h-5.55v-3.22c0-1.1-.9-2-2-2h-4.65c-1.1,0-2,.9-2,2v3.22h-5.55v-3.22c0-1.1-.9-2-2-2h-4.65c-1.1,0-2,.9-2,2v10.35c0,.53,.18,1.05,.51,1.46l3.48,4.36v20.74h0l-3.27,3.14c-.11,.11-.21,.22-.29,.34-.28,.39-.43,.86-.43,1.35v2.85c0,.65,.53,1.17,1.17,1.17H53.35c.65,0,1.17-.53,1.17-1.17v-2.85c0-.49-.15-.96-.43-1.35-.09-.12-.18-.24-.29-.34l-3.27-3.14h0v-20.74h0l3.48-4.36c.33-.42,.51-.93,.51-1.46v-10.35c0-1.1-.9-2-2-2Z"/>
    </g>
  </g>
</svg>