<?xml version="1.0" encoding="UTF-8"?>
<svg id="Layer_2" data-name="Layer 2" xmlns="http://www.w3.org/2000/svg" viewBox="0 0 72 72">
  <defs>
    <style>
      .cls-1 {
        fill: #5d7c8c;
      }

      .cls-2 {
        fill: #476475;
      }

      .cls-3 {
        fill: #324652;
      }

      .cls-4 {
        opacity: 0;
      }

      .cls-4, .cls-5 {
        fill: #1a1a1a;
      }
    </style>
  </defs>
  <g id="Rough">
    <g>
      <rect class="cls-4" width="72" height="72"/>
      <g>
        <path class="cls-5" d="M54.38,59.17c-.08-.97-.31-1.92-.7-2.82-.19-.43-.38-.81-.61-1.17l-4.83-7.62c.52-.89,.81-1.92,.81-3.02v-2.05c0-.99-.24-1.92-.66-2.74,1.33-2.21,2.05-4.76,2.05-7.42,0-7.96-6.48-14.44-14.44-14.44s-14.44,6.48-14.44,14.44c0,2.66,.72,5.21,2.05,7.42-.42,.82-.66,1.75-.66,2.74v2.05c0,1.1,.3,2.13,.82,3.02l-4.83,7.63c-.22,.35-.42,.73-.6,1.15-.39,.9-.63,1.85-.71,2.86-.02,.21-.03,.42-.03,.64v2.49c0,2.85,2.32,5.17,5.17,5.17h26.48c2.85,0,5.17-2.32,5.17-5.17v-2.49c0-.21-.01-.41-.04-.67Z"/>
        <g>
          <path class="cls-1" d="M49.69,57.33l-9.13-14.42h-9.11l-9.13,14.42c-.12,.2-.23,.4-.32,.61h28.01c-.09-.21-.19-.42-.32-.61Z"/>
          <path class="cls-3" d="M21.58,59.84v2.49c0,.65,.53,1.17,1.17,1.17h26.48c.65,0,1.17-.53,1.17-1.17v-2.49c0-.12-.02-.24-.03-.36-.04-.53-.17-1.05-.38-1.54H21.99c-.21,.49-.34,1.01-.38,1.54,0,.12-.03,.24-.03,.36Z"/>
          <circle class="cls-1" cx="36" cy="32.34" r="10.44"/>
          <rect class="cls-2" x="26.95" y="40.5" width="18.11" height="6.05" rx="2" ry="2"/>
        </g>
      </g>
    </g>
  </g>
</svg>