<?xml version="1.0" encoding="UTF-8"?>
<svg id="Layer_2" data-name="Layer 2" xmlns="http://www.w3.org/2000/svg" viewBox="0 0 72 72">
  <defs>
    <style>
      .cls-1 {
        fill: #9c3d29;
      }

      .cls-2 {
        fill: #bb5938;
      }

      .cls-3 {
        fill: #d1774b;
      }

      .cls-4 {
        fill: #1a1a1a;
        opacity: 0;
      }
    </style>
  </defs>
  <g id="Rough">
    <g>
      <rect class="cls-4" width="72" height="72"/>
      <g>
        <path class="cls-3" d="M19.68,41.4c0,9.01,7.31,16.32,16.32,16.32s16.32-7.31,16.32-16.32S36,14.39,36,14.39c0,0-16.32,18-16.32,27.01Z"/>
        <path class="cls-2" d="M51.81,38.27c-1.47,6.94-7.99,12.17-15.81,12.17s-14.34-5.23-15.81-12.17c-.33,1.12-.52,2.18-.52,3.13,0,9.01,7.31,16.32,16.32,16.32s16.32-7.31,16.32-16.32c0-.95-.19-2.01-.52-3.13Z"/>
        <path class="cls-3" d="M53.8,57.78l-1.91-1.83c-.87-.84-2.04-1.31-3.25-1.31H23.35c-1.21,0-2.38,.47-3.25,1.31l-1.91,1.83c-.11,.11-.21,.22-.29,.34H54.1c-.09-.12-.18-.24-.29-.34Z"/>
        <path class="cls-1" d="M17.47,62.33c0,.65,.53,1.17,1.17,1.17H53.35c.65,0,1.17-.53,1.17-1.17v-2.85c0-.49-.15-.96-.43-1.35H17.9c-.28,.39-.43,.86-.43,1.35v2.85Z"/>
        <circle class="cls-3" cx="36" cy="14.39" r="5.89"/>
        <path class="cls-1" d="M36,34.94c3.88,0,7.48,1.32,10.49,3.6,.9,.68,2.11-.34,1.61-1.35-2.97-6.03-7.29-9.83-12.1-9.83s-9.13,3.8-12.1,9.83c-.5,1.01,.71,2.03,1.61,1.35,3.01-2.27,6.61-3.6,10.49-3.6Z"/>
      </g>
    </g>
  </g>
</svg>