<?xml version="1.0" encoding="UTF-8"?>
<svg id="Layer_2" data-name="Layer 2" xmlns="http://www.w3.org/2000/svg" viewBox="0 0 72 72">
  <defs>
    <style>
      .cls-1 {
        fill: #9c3d29;
      }

      .cls-2 {
        fill: #bb5938;
      }

      .cls-3 {
        fill: #d1774b;
      }

      .cls-4 {
        opacity: 0;
      }

      .cls-4, .cls-5 {
        fill: #1a1a1a;
      }
    </style>
  </defs>
  <g id="Rough">
    <g>
      <rect class="cls-4" width="72" height="72"/>
      <g>
        <path class="cls-5" d="M58,54.74l-1.55-1.49c5.76-22.22-.61-33.41-7.13-38.91-3.03-2.56-6.88-3.98-11.18-4.15l-2.28-3.2c-1.04-1.46-2.74-2.33-4.53-2.33-1.57,0-3.07,.67-4.12,1.83-2.03,2.24-3.02,5.01-2.9,7.89-3,2.44-3.98,5.63-4.23,6.64l-1.28,4.15c-.14,.45-.38,.86-.71,1.19l-3.84,3.93c-1.65,1.69-2.43,4-2.14,6.34,.29,2.34,1.61,4.4,3.62,5.63,.06,.04,.11,.07,.17,.1l.77,.42c1.33,.73,2.84,1.12,4.37,1.12h0c.99,0,1.97-.16,2.9-.48-3.36,3.34-4.48,6.98-4.85,9.15l-2.23,2.14c-.16,.15-.3,.31-.44,.48-.98,1.15-1.51,2.6-1.51,4.1v2.85c0,2.85,2.32,5.17,5.17,5.17H54.78c2.85,0,5.17-2.32,5.17-5.17v-2.85c0-1.49-.54-2.94-1.51-4.09-.14-.17-.28-.33-.44-.48Z"/>
        <g>
          <path class="cls-3" d="M55.23,57.62l-3.27-3.14H22.89l-3.27,3.14c-.05,.05-.09,.11-.13,.16H55.37c-.05-.05-.08-.11-.13-.16Z"/>
          <path class="cls-1" d="M18.9,62.17c0,.65,.53,1.17,1.17,1.17H54.78c.65,0,1.17-.53,1.17-1.17v-2.85c0-.57-.22-1.11-.59-1.54H19.49c-.37,.43-.59,.97-.59,1.54v2.85Z"/>
          <path class="cls-3" d="M46.74,17.39c-5.47-4.62-13.9-3.84-19.2-.42h0c-2.97,1.93-3.59,5.09-3.59,5.09l-1.32,4.29c-.33,1.06-.9,2.02-1.67,2.81l-3.85,3.93c-1.67,1.71-1.32,4.52,.71,5.77l.78,.42c1.56,.86,3.46,.83,5-.06,.81-.55,1.82-.67,2.76-.39,5.27,1.56,9.52-2.67,9.52-2.67-.45,4.76-2.94,6.05-4.83,7.04-8.29,4.32-8.15,11.29-8.15,11.29h29.07c6.1-21.19,1.05-31.8-5.23-37.09Z"/>
          <path class="cls-3" d="M32.6,9.32c-.58-.81-1.76-.89-2.43-.14-1.36,1.51-2.93,4.35-.96,8.45l8.8-.72-5.41-7.58Z"/>
          <path class="cls-1" d="M33.74,23.98c-.04-.53-.47-.96-1-1-1.04-.09-2.15,.29-2.99,1.13-.84,.84-1.22,1.94-1.13,2.99,.04,.53,.47,.96,1,1,1.04,.09,2.15-.29,2.99-1.13,.84-.84,1.22-1.94,1.13-2.99Z"/>
          <path class="cls-2" d="M37.43,50.81c-4.37,0-8.46-1.11-11.97-3.04-2.63,3.45-2.57,6.72-2.57,6.72h29.07c1.07-3.72,1.79-7.12,2.23-10.21-4.27,4.03-10.2,6.54-16.77,6.54Z"/>
        </g>
      </g>
    </g>
  </g>
</svg>