<?xml version="1.0" encoding="UTF-8"?>
<svg id="Layer_2" data-name="Layer 2" xmlns="http://www.w3.org/2000/svg" viewBox="0 0 72 72">
  <defs>
    <style>
      .cls-1 {
        fill: #9c3d29;
      }

      .cls-2 {
        fill: #bb5938;
      }

      .cls-3 {
        fill: #d1774b;
      }

      .cls-4 {
        fill: #1a1a1a;
        opacity: 0;
      }
    </style>
  </defs>
  <g id="Rough">
    <g>
      <rect class="cls-4" width="72" height="72"/>
      <g>
        <path class="cls-3" d="M53.8,57.62l-3.27-3.14H21.46l-3.27,3.14c-.11,.11-.21,.22-.29,.34H54.09c-.09-.12-.18-.24-.29-.34Z"/>
        <path class="cls-1" d="M17.47,62.17c0,.65,.53,1.17,1.17,1.17H53.35c.65,0,1.17-.53,1.17-1.17v-2.85c0-.49-.15-.96-.43-1.35H17.9c-.28,.39-.43,.86-.43,1.35v2.85Z"/>
        <rect class="cls-2" x="21.46" y="33.74" width="29.07" height="20.74"/>
        <path class="cls-3" d="M21.46,33.74l-3.48-4.36c-.33-.42-.51-.93-.51-1.46v-7.14H54.53v7.14c0,.53-.18,1.05-.51,1.46l-3.48,4.36H21.46Z"/>
        <path class="cls-3" d="M19.47,15.56h4.65c1.1,0,2,.9,2,2v3.22h-8.65v-3.22c0-1.1,.9-2,2-2Z"/>
        <path class="cls-3" d="M47.88,15.56h4.65c1.1,0,2,.9,2,2v3.22h-8.65v-3.22c0-1.1,.9-2,2-2Z"/>
        <path class="cls-3" d="M33.67,15.56h4.65c1.1,0,2,.9,2,2v3.22h-8.65v-3.22c0-1.1,.9-2,2-2Z"/>
        <path class="cls-1" d="M54.53,27.92H17.47c0,.53,.18,1.05,.51,1.46l3.48,4.36h29.07l3.48-4.36c.33-.42,.51-.93,.51-1.46Z"/>
      </g>
    </g>
  </g>
</svg>