<?xml version="1.0" encoding="UTF-8"?>
<svg id="Layer_2" data-name="Layer 2" xmlns="http://www.w3.org/2000/svg" viewBox="0 0 72 72">
  <defs>
    <style>
      .cls-1 {
        fill: #fff;
      }

      .cls-2 {
        fill: #cef;
      }

      .cls-3 {
        fill: #1a1a1a;
        opacity: 0;
      }
    </style>
  </defs>
  <g id="Rough">
    <g>
      <rect class="cls-3" width="72" height="72"/>
      <g>
        <path class="cls-1" d="M49.69,57.33l-9.13-14.42h-9.11l-9.13,14.42c-.12,.2-.23,.4-.32,.61h28.01c-.09-.21-.19-.42-.32-.61Z"/>
        <path class="cls-2" d="M21.58,59.84v2.49c0,.65,.53,1.17,1.17,1.17h26.48c.65,0,1.17-.53,1.17-1.17v-2.49c0-.12-.02-.24-.03-.36-.04-.53-.17-1.05-.38-1.54H21.99c-.21,.49-.34,1.01-.38,1.54,0,.12-.03,.24-.03,.36Z"/>
        <circle class="cls-1" cx="36" cy="32.34" r="10.44"/>
        <rect class="cls-2" x="26.95" y="40.5" width="18.11" height="6.05" rx="2" ry="2"/>
      </g>
    </g>
  </g>
</svg>