<?xml version="1.0" encoding="UTF-8"?>
<svg id="Layer_2" data-name="Layer 2" xmlns="http://www.w3.org/2000/svg" viewBox="0 0 72 72">
  <defs>
    <style>
      .cls-1 {
        fill: #fff;
      }

      .cls-2 {
        fill: #cef;
      }

      .cls-3 {
        fill: #1a1a1a;
        opacity: 0;
      }
    </style>
  </defs>
  <g id="Rough">
    <g>
      <rect class="cls-3" width="72" height="72"/>
      <g>
        <path class="cls-2" d="M48.79,27.71c0,7.06-5.73,12.79-12.79,12.79s-12.79-5.73-12.79-12.79,5.73-9.85,12.79-9.85,12.79,2.79,12.79,9.85Z"/>
        <path class="cls-1" d="M58.85,27.67c-2.92-2.87-10.82-7.67-22.85,7.02-12.03-14.69-19.92-9.89-22.85-7.02-.82,.8-1.07,2.02-.66,3.1l8.97,23.88h29.07l8.97-23.88c.4-1.07,.16-2.29-.66-3.1Z"/>
        <circle class="cls-1" cx="36" cy="14.39" r="5.89"/>
        <path class="cls-2" d="M36,49.35c-6.75,0-13.06-1.84-18.41-5.02l3.88,10.31h29.07l3.88-10.31c-5.35,3.18-11.66,5.02-18.41,5.02Z"/>
        <path class="cls-1" d="M53.8,57.78l-3.27-3.14H21.47l-3.27,3.14c-.05,.05-.09,.11-.13,.16H53.94c-.05-.05-.08-.11-.13-.16Z"/>
        <path class="cls-2" d="M17.48,62.33c0,.65,.53,1.17,1.17,1.17H53.35c.65,0,1.17-.53,1.17-1.17v-2.85c0-.57-.22-1.11-.59-1.54H18.06c-.37,.43-.59,.97-.59,1.54v2.85Z"/>
      </g>
    </g>
  </g>
</svg>