<?xml version="1.0" encoding="UTF-8"?>
<svg id="Layer_2" data-name="Layer 2" xmlns="http://www.w3.org/2000/svg" viewBox="0 0 72 72">
  <defs>
    <style>
      .cls-1 {
        fill: #fff;
      }

      .cls-2 {
        fill: #cef;
      }

      .cls-3 {
        opacity: 0;
      }

      .cls-3, .cls-4 {
        fill: #1a1a1a;
      }
    </style>
  </defs>
  <g id="Rough">
    <g>
      <rect class="cls-3" width="72" height="72"/>
      <g>
        <path class="cls-4" d="M52.53,11.56h-4.65c-1.95,0-3.68,.93-4.78,2.37-1.1-1.44-2.83-2.37-4.78-2.37h-4.65c-1.95,0-3.68,.93-4.78,2.37-1.1-1.44-2.83-2.37-4.78-2.37h-4.65c-3.31,0-6,2.69-6,6v10.35c0,1.43,.49,2.83,1.38,3.96l2.61,3.27v17.64l-2.03,1.95c-.29,.28-.56,.59-.8,.94-.76,1.08-1.16,2.34-1.16,3.65v2.85c0,2.85,2.32,5.17,5.17,5.17H53.35c2.85,0,5.17-2.32,5.17-5.17v-2.85c0-1.31-.4-2.58-1.16-3.65-.25-.35-.52-.67-.79-.93l-2.04-1.96v-17.64l2.6-3.27c.89-1.12,1.39-2.53,1.39-3.96v-10.35c0-3.31-2.69-6-6-6Z"/>
        <g>
          <path class="cls-1" d="M53.8,57.62l-3.27-3.14H21.46l-3.27,3.14c-.11,.11-.21,.22-.29,.34H54.09c-.09-.12-.18-.24-.29-.34Z"/>
          <path class="cls-2" d="M17.47,62.17c0,.65,.53,1.17,1.17,1.17H53.35c.65,0,1.17-.53,1.17-1.17v-2.85c0-.49-.15-.96-.43-1.35H17.9c-.28,.39-.43,.86-.43,1.35v2.85Z"/>
          <rect class="cls-1" x="21.46" y="33.74" width="29.07" height="20.74"/>
          <path class="cls-1" d="M21.46,33.74l-3.48-4.36c-.33-.42-.51-.93-.51-1.46v-7.14H54.53v7.14c0,.53-.18,1.05-.51,1.46l-3.48,4.36H21.46Z"/>
          <path class="cls-1" d="M19.47,15.56h4.65c1.1,0,2,.9,2,2v3.22h-8.65v-3.22c0-1.1,.9-2,2-2Z"/>
          <path class="cls-1" d="M47.88,15.56h4.65c1.1,0,2,.9,2,2v3.22h-8.65v-3.22c0-1.1,.9-2,2-2Z"/>
          <path class="cls-1" d="M33.67,15.56h4.65c1.1,0,2,.9,2,2v3.22h-8.65v-3.22c0-1.1,.9-2,2-2Z"/>
          <path class="cls-2" d="M54.53,27.92H17.47c0,.53,.18,1.05,.51,1.46l3.48,4.36h29.07l3.48-4.36c.33-.42,.51-.93,.51-1.46Z"/>
        </g>
      </g>
    </g>
  </g>
</svg>